# xmcd
#
# Track frame offsets:
#	150
#	18094
#	32709
#	48580
#	65409
#	83204
#	103088
#	122005
#	145935
#	162622
#	180398
#	200496
#	213268
#
# Disc length: 3194 seconds
#
# Revision: 0
# Processed by: cddbd v1.5.2PL0 Copyright (c) Steve Scherf et al.
# Submitted via: dBpowerAMP V4.0
#
DISCID=b30c780d
DTITLE=Blue Heels - Long Gone
DYEAR=2005
DGENRE=Alt. Country
TTITLE0=Tennessee
TTITLE1=This Child
TTITLE2=Reason to Cry
TTITLE3=Red Pajamas
TTITLE4=Up All Night
TTITLE5=I Stumbled In
TTITLE6=Carlos's Shoes
TTITLE7=Tyler Song
TTITLE8=Forward Motion
TTITLE9=Billy the Kid
TTITLE10=Midwestern Song
TTITLE11=Wedding Day
TTITLE12=Girl in the Back of my Mind
EXTD=
EXTT0=
EXTT1=
EXTT2=
EXTT3=
EXTT4=
EXTT5=
EXTT6=
EXTT7=
EXTT8=
EXTT9=
EXTT10=
EXTT11=
EXTT12=
PLAYORDER=
